<?xml version="1.0" standalone="no"?>
<!DOCTYPE svg PUBLIC "-//W3C//DTD SVG 20010904//EN"
 "http://www.w3.org/TR/2001/REC-SVG-20010904/DTD/svg10.dtd">
<svg version="1.0" xmlns="http://www.w3.org/2000/svg"
 width="300.000000pt" height="300.000000pt" viewBox="0 0 300.000000 300.000000"
 preserveAspectRatio="xMidYMid meet">

<g transform="translate(0.000000,300.000000) scale(0.100000,-0.100000)"
fill="#000000" stroke="none">
<path d="M1135 2132 l-360 -208 -3 -302 -2 -302 35 0 35 0 0 278 0 277 276
160 c152 88 302 174 333 190 l56 31 -5 42 -5 42 -360 -208z"/>
<path d="M1465 2050 c2 -3 -11 -14 -30 -24 -18 -10 -41 -34 -50 -55 -10 -20
-22 -44 -26 -53 -5 -10 -4 -20 1 -23 6 -3 10 -16 10 -28 0 -15 11 -29 30 -41
17 -9 28 -21 25 -27 -3 -5 1 -6 9 -3 13 5 16 -2 16 -38 0 -38 4 -47 25 -56
l25 -12 0 58 c0 31 -4 71 -9 89 -8 26 -6 33 7 36 10 3 1 5 -19 6 -40 1 -121
31 -102 38 6 2 36 -2 67 -11 l56 -14 0 51 c0 34 7 63 20 84 l20 33 -40 -2
c-21 -1 -37 -4 -35 -8z"/>
<path d="M1583 2025 c51 -35 90 -115 55 -115 -6 0 -9 -3 -5 -6 3 -3 14 -3 25
1 40 12 -6 98 -70 131 -43 22 -46 16 -5 -11z"/>
<path d="M1536 1890 c6 -6 21 -6 39 -1 30 9 30 9 -9 10 -26 1 -37 -2 -30 -9z"/>
<path d="M1701 1851 c-1 -19 -7 -39 -15 -45 -12 -9 -12 -29 -4 -117 11 -104
10 -108 -13 -145 l-23 -38 42 34 c26 20 41 40 38 49 -2 9 -10 56 -16 104 -10
75 -10 90 3 105 12 14 12 22 1 52 l-12 35 -1 -34z"/>
<path d="M1290 1761 c0 -4 11 -6 25 -3 14 2 25 6 25 8 0 2 -11 4 -25 4 -14 0
-25 -4 -25 -9z"/>
<path d="M1383 1730 c21 -29 26 -52 34 -138 l9 -104 -29 6 c-16 3 -43 16 -60
28 -43 29 -25 11 51 -52 35 -28 65 -50 67 -48 3 2 -2 65 -11 139 -15 133 -16
134 -51 169 l-36 35 26 -35z"/>
<path d="M1617 1753 c-4 -3 -7 -11 -7 -17 0 -6 5 -5 12 2 6 6 9 14 7 17 -3 3
-9 2 -12 -2z"/>
<path d="M1151 1718 c7 -13 25 -42 40 -65 16 -23 29 -46 29 -52 0 -6 4 -11 9
-11 17 0 18 51 2 78 -30 53 -36 59 -64 66 -27 6 -27 6 -16 -16z"/>
<path d="M1851 1735 c-1 -5 -21 -40 -45 -77 -25 -38 -41 -68 -36 -68 5 0 15
-2 23 -6 9 -3 25 12 47 46 29 45 31 55 22 83 -5 18 -10 28 -11 22z"/>
<path d="M1581 1674 c0 -11 3 -14 6 -6 3 7 2 16 -1 19 -3 4 -6 -2 -5 -13z"/>
<path d="M1551 1614 c0 -11 3 -14 6 -6 3 7 2 16 -1 19 -3 4 -6 -2 -5 -13z"/>
<path d="M1571 1594 c0 -11 3 -14 6 -6 3 7 2 16 -1 19 -3 4 -6 -2 -5 -13z"/>
<path d="M1191 1555 c-18 -6 -29 -14 -24 -19 4 -4 -3 -7 -17 -6 -14 1 -40 2
-58 1 l-34 -1 49 -45 c60 -56 171 -113 255 -131 108 -23 121 -17 48 20 -35 19
-58 35 -50 37 10 3 -11 29 -61 79 -75 74 -77 76 -108 65z"/>
<path d="M1684 1485 c-40 -41 -67 -76 -60 -78 6 -3 -18 -19 -54 -37 l-65 -32
60 7 c127 15 252 73 329 154 l30 31 -35 1 c-19 1 -36 1 -39 1 -3 0 -16 -3 -30
-7 -21 -7 -23 -6 -12 7 10 13 9 17 -10 22 -37 10 -40 8 -114 -69z"/>
<path d="M1541 1534 c0 -11 3 -14 6 -6 3 7 2 16 -1 19 -3 4 -6 -2 -5 -13z"/>
<path d="M1561 1504 c0 -11 3 -14 6 -6 3 7 2 16 -1 19 -3 4 -6 -2 -5 -13z"/>
<path d="M1054 1468 l-19 -23 25 20 c14 11 27 21 29 22 2 2 0 3 -6 3 -5 0 -18
-10 -29 -22z"/>
<path d="M1901 1487 c2 -1 15 -11 29 -22 l25 -20 -19 23 c-11 12 -24 22 -29
22 -6 0 -8 -1 -6 -3z"/>
<path d="M1531 1454 c0 -11 3 -14 6 -6 3 7 2 16 -1 19 -3 4 -6 -2 -5 -13z"/>
<path d="M1110 1456 c0 -2 8 -10 18 -17 15 -13 16 -12 3 4 -13 16 -21 21 -21
13z"/>
<path d="M1859 1443 c-13 -16 -12 -17 4 -4 9 7 17 15 17 17 0 8 -8 3 -21 -13z"/>
<path d="M1138 1373 c6 -2 9 -10 6 -15 -4 -7 -2 -8 4 -4 18 11 14 26 -5 25
-11 0 -13 -3 -5 -6z"/>
<path d="M1832 1368 c2 -6 11 -13 19 -16 12 -3 12 -2 0 6 -11 8 -11 10 0 15
10 4 8 6 -4 6 -10 1 -17 -4 -15 -11z"/>
<path d="M1685 1350 c-19 -8 -19 -9 3 -9 12 -1 22 4 22 9 0 6 -1 10 -2 9 -2 0
-12 -4 -23 -9z"/>
<path d="M2178 1323 c12 -2 30 -2 40 0 9 3 -1 5 -23 4 -22 0 -30 -2 -17 -4z"/>
<path d="M517 1242 c-16 -16 -27 -39 -27 -55 0 -24 4 -27 34 -27 19 0 37 -6
39 -12 3 -7 6 -3 6 10 1 20 5 22 67 22 l65 0 -3 43 -3 42 -75 3 c-72 3 -77 1
-103 -26z"/>
<path d="M1450 1171 c0 -54 3 -113 6 -130 6 -28 10 -31 45 -31 38 0 39 1 39
35 0 34 1 35 38 35 29 0 44 7 63 27 17 20 18 23 3 10 -16 -13 -39 -17 -102
-17 l-82 0 0 80 0 80 77 0 c65 0 81 -3 102 -22 l26 -23 -24 28 c-23 25 -29 27
-108 27 l-83 0 0 -99z"/>
<path d="M2553 1263 c26 -2 68 -2 95 0 26 2 4 3 -48 3 -52 0 -74 -1 -47 -3z"/>
<path d="M730 1238 c0 -13 -3 -41 -6 -63 -4 -27 -2 -36 4 -27 6 9 25 13 48 12
22 -2 58 -2 82 -1 41 1 42 2 42 35 0 63 -4 66 -91 66 -75 0 -79 -1 -79 -22z"/>
<path d="M931 1198 c0 -35 3 -57 6 -50 3 9 38 12 123 12 l119 0 4 -37 c2 -21
4 1 5 50 l2 87 -45 0 c-42 0 -47 -3 -62 -35 -9 -19 -20 -35 -25 -35 -5 0 -16
16 -25 35 -15 32 -20 35 -60 35 l-43 0 1 -62z"/>
<path d="M1200 1210 l0 -50 65 0 65 0 0 -29 c0 -25 -5 -30 -27 -34 -26 -4 -26
-4 5 -6 32 -1 32 0 32 44 0 38 3 45 20 45 17 0 20 7 20 40 l0 40 -90 0 -90 0
0 -50z"/>
<path d="M2062 1169 c-1 -53 1 -111 4 -128 6 -28 10 -31 45 -31 37 0 39 1 39
33 l0 32 21 -32 c18 -28 27 -33 60 -33 l39 0 0 48 0 47 -100 -3 -99 -3 -4 83
-3 83 -2 -96z"/>
<path d="M2463 1220 c0 -25 2 -35 4 -22 2 12 2 32 0 45 -2 12 -4 2 -4 -23z"/>
<path d="M1540 1170 c0 -5 9 -10 20 -10 11 0 20 5 20 10 0 6 -9 10 -20 10 -11
0 -20 -4 -20 -10z"/>
<path d="M2373 1173 c9 -2 25 -2 35 0 9 3 1 5 -18 5 -19 0 -27 -2 -17 -5z"/>
<path d="M2559 1163 c-13 -16 -12 -17 4 -4 16 13 21 21 13 21 -2 0 -10 -8 -17
-17z"/>
<path d="M2649 1163 c-13 -16 -12 -17 4 -4 16 13 21 21 13 21 -2 0 -10 -8 -17
-17z"/>
<path d="M1852 1134 c-1 -17 -5 -52 -8 -78 l-7 -46 41 0 c38 0 40 2 46 35 10
54 46 41 46 -16 0 -16 7 -19 40 -19 l40 0 0 45 0 45 -94 0 -95 0 -4 33 -4 32
-1 -31z"/>
<path d="M611 1118 c2 -31 2 -31 6 -5 4 23 9 27 39 27 l34 0 0 -65 c0 -41 4
-65 11 -65 6 0 8 7 5 16 -3 9 -6 40 -6 70 l0 54 -45 0 c-44 0 -45 0 -44 -32z"/>
<path d="M902 1130 c0 -14 2 -19 5 -12 2 6 2 18 0 25 -3 6 -5 1 -5 -13z"/>
<path d="M2515 1088 c-34 -73 -33 -78 20 -78 31 0 45 4 45 13 0 8 10 33 23 58
l22 44 -44 -4 c-30 -2 -41 0 -37 8 4 6 4 11 1 11 -3 0 -17 -24 -30 -52z"/>
<path d="M711 1094 c0 -11 3 -14 6 -6 3 7 2 16 -1 19 -3 4 -6 -2 -5 -13z"/>
<path d="M1670 1058 l0 -48 80 0 80 0 0 40 0 40 -40 0 c-22 0 -40 3 -40 8 0 4
-18 7 -40 7 l-40 0 0 -47z"/>
<path d="M2280 1058 l0 -48 89 0 89 0 6 31 c9 47 8 49 -19 49 -14 0 -25 3 -25
8 0 4 -31 7 -70 7 l-70 0 0 -47z"/>
<path d="M1103 1050 c0 -25 2 -35 4 -22 2 12 2 32 0 45 -2 12 -4 2 -4 -23z"/>
<path d="M831 1034 c0 -11 3 -14 6 -6 3 7 2 16 -1 19 -3 4 -6 -2 -5 -13z"/>
<path d="M1070 895 c14 -7 115 -66 225 -129 l200 -116 5 43 c4 31 1 44 -10 48
-8 4 -77 43 -154 88 l-138 81 -77 0 c-70 -1 -74 -2 -51 -15z"/>
</g>
</svg>
